<?xml version="1.0" encoding="UTF-8" standalone="no"?>
<!-- Created with Inkscape (http://www.inkscape.org/) -->

<svg
   width="512"
   height="512"
   viewBox="0 0 135.46666 135.46667"
   version="1.1"
   id="svg1"
   xmlns="http://www.w3.org/2000/svg"
   xmlns:svg="http://www.w3.org/2000/svg">
  <defs
     id="defs1" />
  <g
     id="layer1">
    <ellipse
       style="display:none;fill:#333333;stroke:none;stroke-width:2.12778"
       id="path1"
       cx="68.092682"
       cy="68.092682"
       rx="67.368294"
       ry="66.643898" />
    <g
       id="g5"
       style="display:none"
       transform="matrix(1.0057226,0,0,1.0153969,-0.77423448,-1.30525)">
      <path
         style="display:inline;fill:#ffffff;stroke:none;stroke-width:7.78447"
         d="M 244.89822,508.49783 C 132.20614,502.82988 36.329201,423.83872 10.129731,315.07657 5.0545665,294.00798 3.9149096,283.47403 3.8986266,257.48193 3.8818443,230.69291 5.1095113,220.00648 10.848762,196.98335 17.587637,169.95022 29.503583,142.98917 44.905445,119.92663 109.93878,22.546599 230.59861,-17.939786 341.65609,20.35446 c 117.24744,40.428634 188.00392,160.96215 165.558,282.02771 -15.05694,81.21201 -69.16492,149.70837 -145.3105,183.95146 -19.58384,8.80696 -40.65268,15.17287 -62.55141,18.89981 -11.0452,1.87977 -37.22444,4.07434 -44.60919,3.73953 -2.2203,-0.10067 -6.65044,-0.31449 -9.84477,-0.47514 z M 90.851965,417.71997 c 40.164115,-10.41386 67.382255,-28.23005 78.614265,-51.45855 1.83339,-3.79159 4.30254,-10.32543 5.487,-14.51966 l 2.15356,-7.62588 0.29151,-104.36272 0.29153,-104.36273 3.5969,-1.51193 c 1.9783,-0.83157 7.17547,-2.24005 11.54928,-3.12997 4.3738,-0.88991 8.29411,-1.95216 8.71179,-2.36055 0.41768,-0.40839 1.42697,-4.96083 2.24287,-10.11654 1.39939,-8.84285 1.62197,-9.39035 3.92802,-9.66236 2.43457,-0.28718 2.44171,-0.2654 1.74416,5.32388 -0.38522,3.08672 -0.73717,7.20992 -0.78209,9.16264 l -0.0817,3.55043 7.98581,2.63314 c 4.3922,1.44823 9.61928,3.45301 11.61573,4.45506 l 3.62991,1.82192 v 85.52711 85.5271 l -4.59789,1.9558 c -2.52884,1.07569 -7.07338,2.46093 -10.09896,3.07831 -6.35377,1.2965 -5.90288,0.28185 -7.5471,16.98378 -0.57652,5.85626 -1.27208,12.06342 -1.5457,13.79367 l -0.4975,3.14593 48.20073,-0.0137 c 64.14036,-0.0182 83.84154,-1.18001 109.08152,-6.43279 48.10807,-10.01192 75.89974,-32.62368 88.48408,-71.99212 4.21193,-13.17647 6.07469,-27.3962 6.06978,-46.33499 -0.007,-27.18092 -3.80498,-45.53469 -13.24155,-63.99062 -17.15139,-33.54452 -49.47824,-51.60833 -104.92599,-58.631239 -15.46912,-1.95929 -129.70894,-3.271917 -129.70894,-1.490368 0,1.344313 -3.53848,1.438272 -4.3559,0.115664 C 206.75777,96.167748 183.59756,95.82971 140.8274,95.82971 H 75.105955 l -0.55449,3.145926 c -0.30497,1.730254 -1.337599,9.108764 -2.294733,16.396674 l -1.740244,13.25074 6.848763,1.07298 c 9.60065,1.5041 16.005574,2.95032 19.67446,4.44249 l 3.145929,1.27947 v 103.41957 c 0,112.54019 0.18776,108.41831 -5.446746,119.57222 -4.125274,8.16629 -13.842919,16.92344 -25.323694,22.82072 -5.436532,2.79256 -9.884604,5.2734 -9.884604,5.51301 0,0.36116 6.243649,15.54573 13.042151,31.71855 1.127737,2.68275 1.999262,3.55505 3.206999,3.20985 0.912136,-0.26071 7.694634,-2.03909 15.072219,-3.95197 z"
         id="path4"
         transform="scale(0.26458333)" />
      <path
         style="display:inline;fill:#ffffff;fill-opacity:1;stroke:none;stroke-width:7.78447"
         d="m 309.26871,220.698 v -83.54103 l 10.40575,0.60227 c 35.79069,2.07151 51.39598,17.09156 57.50893,55.35221 1.8685,11.69478 1.58802,45.22972 -0.4736,56.62666 -6.65362,36.78217 -22.51216,51.63396 -57.51932,53.8678 l -9.92176,0.63312 z"
         id="path5"
         transform="scale(0.26458333)" />
    </g>
    <g
       id="g7"
       style="display:inline;fill:#000000;fill-opacity:1"
       transform="matrix(1.0057225,0,0,1.015397,-0.77423448,-1.30525)">
      <path
         style="display:inline;fill:#000000;fill-opacity:1;stroke:none;stroke-width:7.78447"
         d="M 244.89822,508.49783 C 132.20614,502.82988 36.329201,423.83872 10.129731,315.07657 5.0545665,294.00798 3.9149096,283.47403 3.8986266,257.48193 3.8818443,230.69291 5.1095113,220.00648 10.848762,196.98335 17.587637,169.95022 29.503583,142.98917 44.905445,119.92663 109.93878,22.546599 230.59861,-17.939786 341.65609,20.35446 c 117.24744,40.428634 188.00392,160.96215 165.558,282.02771 -15.05694,81.21201 -69.16492,149.70837 -145.3105,183.95146 -19.58384,8.80696 -40.65268,15.17287 -62.55141,18.89981 -11.0452,1.87977 -37.22444,4.07434 -44.60919,3.73953 -2.2203,-0.10067 -6.65044,-0.31449 -9.84477,-0.47514 z M 90.851965,417.71997 c 40.164115,-10.41386 67.382255,-28.23005 78.614265,-51.45855 1.83339,-3.79159 4.30254,-10.32543 5.487,-14.51966 l 2.15356,-7.62588 0.29151,-104.36272 0.29153,-104.36273 3.5969,-1.51193 c 1.9783,-0.83157 7.17547,-2.24005 11.54928,-3.12997 4.3738,-0.88991 8.29411,-1.95216 8.71179,-2.36055 0.41768,-0.40839 1.42697,-4.96083 2.24287,-10.11654 1.39939,-8.84285 1.62197,-9.39035 3.92802,-9.66236 2.43457,-0.28718 2.44171,-0.2654 1.74416,5.32388 -0.38522,3.08672 -0.73717,7.20992 -0.78209,9.16264 l -0.0817,3.55043 7.98581,2.63314 c 4.3922,1.44823 9.61928,3.45301 11.61573,4.45506 l 3.62991,1.82192 v 85.52711 85.5271 l -4.59789,1.9558 c -2.52884,1.07569 -7.07338,2.46093 -10.09896,3.07831 -6.35377,1.2965 -5.90288,0.28185 -7.5471,16.98378 -0.57652,5.85626 -1.27208,12.06342 -1.5457,13.79367 l -0.4975,3.14593 48.20073,-0.0137 c 64.14036,-0.0182 83.84154,-1.18001 109.08152,-6.43279 48.10807,-10.01192 75.89974,-32.62368 88.48408,-71.99212 4.21193,-13.17647 6.07469,-27.3962 6.06978,-46.33499 -0.007,-27.18092 -3.80498,-45.53469 -13.24155,-63.99062 -17.15139,-33.54452 -49.47824,-51.60833 -104.92599,-58.631239 -15.46912,-1.95929 -129.70894,-3.271917 -129.70894,-1.490368 0,1.344313 -3.53848,1.438272 -4.3559,0.115664 C 206.75777,96.167748 183.59756,95.82971 140.8274,95.82971 H 75.105955 l -0.55449,3.145926 c -0.30497,1.730254 -1.337599,9.108764 -2.294733,16.396674 l -1.740244,13.25074 6.848763,1.07298 c 9.60065,1.5041 16.005574,2.95032 19.67446,4.44249 l 3.145929,1.27947 v 103.41957 c 0,112.54019 0.18776,108.41831 -5.446746,119.57222 -4.125274,8.16629 -13.842919,16.92344 -25.323694,22.82072 -5.436532,2.79256 -9.884604,5.2734 -9.884604,5.51301 0,0.36116 6.243649,15.54573 13.042151,31.71855 1.127737,2.68275 1.999262,3.55505 3.206999,3.20985 0.912136,-0.26071 7.694634,-2.03909 15.072219,-3.95197 z"
         id="path6"
         transform="scale(0.26458333)" />
      <path
         style="display:inline;fill:#000000;fill-opacity:1;stroke:none;stroke-width:7.78447"
         d="m 309.26871,220.698 v -83.54103 l 10.40575,0.60227 c 35.79069,2.07151 51.39598,17.09156 57.50893,55.35221 1.8685,11.69478 1.58802,45.22972 -0.4736,56.62666 -6.65362,36.78217 -22.51216,51.63396 -57.51932,53.8678 l -9.92176,0.63312 z"
         id="path7"
         transform="scale(0.26458333)" />
    </g>
  </g>
</svg>
