<?xml version="1.0" encoding="UTF-8" standalone="no"?>
<!-- Created with Inkscape (http://www.inkscape.org/) -->

<svg
   version="1.1"
   class="logo"
   viewBox="0 0 200 200"
   id="svg1572"
   xmlns="http://www.w3.org/2000/svg"
   xmlns:svg="http://www.w3.org/2000/svg">
  <defs
     id="defs1576" />
  <g
     id="g1578">
    <path
       fill="currentColor"
	   style="display:inline;stroke-width:1"
       d="m 43.023967,119.51108 c -9.030116,-3.43194 -15.929036,-8.1064 -22.690634,-15.37435 -8.887653,-9.553219 -2.675896,-15.432387 6.405111,-6.06217 8.294619,8.55879 24.399677,16.59211 33.26356,16.59211 6.817831,0 27.665808,-25.662099 23.388741,-28.789567 -1.784292,-1.304706 -3.119401,-1.402567 -5.048661,-0.370058 -7.036768,3.765964 -16.006183,-2.178573 -16.428569,-10.888138 -0.39854,-8.217883 -2.570054,-9.92553 -7.714642,-6.066682 -5.682129,4.262046 -16.240462,9.441638 -23.532206,11.544172 -3.758219,1.083662 -7.406247,3.381551 -9.763739,6.150168 -6.037172,7.090002 -19.5695947,5.840718 -19.5695947,-1.806621 0,-3.466233 0,-3.466233 2.7634402,0.04691 4.3413817,5.519173 11.9188535,4.595549 15.2569855,-1.859686 1.429778,-2.764888 3.2586,-3.942198 7.143273,-4.598509 6.213096,-1.049696 20.462524,-7.592051 26.414005,-12.127491 5.858667,-4.464708 13.280108,-1.055284 12.258284,5.63148 -1.269954,8.310507 4.774883,13.257903 13.083258,10.70799 15.50551,-4.758776 11.70564,10.693462 -6.974,28.359882 -11.255131,10.64464 -27.288,7.70195 -43.963579,-8.06912 -4.039539,-3.820421 -7.787952,-6.496314 -8.329808,-5.946424 -1.523015,1.545603 13.2115,14.587064 20.183381,17.864234 C 95.3205,140.84373 146.86325,70.582836 104.54074,25.336645 73.686137,-7.6494203 15.510228,9.9238024 8.5476099,54.333333 c -1.3097172,8.353743 1.39001,7.028212 3.3285941,-1.634296 3.066044,-13.700526 10.535083,-24.608736 22.577159,-32.972966 6.994184,-4.858046 7.354028,-4.537488 10.036298,8.940596 1.167524,5.866666 4.234975,14.95035 6.816555,20.185962 5.860247,11.884959 5.963703,11.02541 -1.950628,16.206582 C 36.269757,73.62594 22.135856,78.043976 19.453228,74.40622 15.312097,68.790672 7.0228105,68.470484 3.3022279,73.78236 1.3333333,76.593349 1.3333333,76.593349 1.3333333,73.660745 c 0,-7.107902 13.8468307,-9.192301 19.0193437,-2.863029 2.867951,3.509325 13.768812,0.349083 25.797594,-7.478919 6.816937,-4.436276 6.816937,-4.436276 1.815754,-14.387536 C 45.107619,43.243659 42.241716,34.933643 41.277088,29.535912 38.398237,13.426845 21.314643,29.172047 14.733473,54 c -2.76895,10.446069 -9.4001397,13.007244 -9.4001397,3.630631 0,-46.603732 66.0773877,-69.930055 100.5217367,-35.485703 44.2759,44.275904 -4.33094,119.599462 -62.831103,97.366152 z m 30.309366,-5.27866 c 0,-0.97217 1.568904,-3.22217 3.486452,-5 1.91755,-1.77783 6.435834,-7.58242 10.040632,-12.899087 3.604799,-5.316666 6.985895,-9.655093 7.513548,-9.640946 13.863445,0.371661 16.600705,5.065106 8.159405,13.990533 -9.754901,10.31437 -29.200037,19.33737 -29.200037,13.5495 z m 19.483147,-9.00216 c 7.30016,-5.02264 13.47174,-12.28744 11.00201,-12.950867 -1.00017,-0.268666 -3.43634,-0.99902 -5.413705,-1.623005 -3.30393,-1.0426 -3.887458,-0.635844 -7.202249,5.020417 -1.983869,3.385216 -5.994405,8.744935 -8.912305,11.910475 -6.128074,6.64818 -0.841974,5.46452 10.526249,-2.35702 z m 7.51685,-20.024951 C 95.176451,83.680196 95.158424,83.453785 99.175705,70.666667 102.924,58.735755 104.51824,49.333333 102.79291,49.333333 c -0.68123,0 -1.90211,3.15 -2.71307,7 -2.403317,11.409734 -6.891217,23.80589 -8.897385,24.57573 -3.293562,1.263857 -8.515788,-3.274011 -8.515788,-7.399816 0,-5.386896 -3.884106,-8.369451 -10.398739,-7.985059 C 61.684849,66.148636 60.212781,61.46008 67.851087,51.456495 74.35184,42.942717 79.415276,32.90764 81.454269,24.496741 c 2.723183,-11.233197 6.05647,-11.178947 18.455502,0.30037 24.034829,22.252009 24.351979,67.48487 0.423559,60.408198 z m 11.58752,-5.538642 c 6.7521,-19.312322 -0.83269,-43.039662 -17.867405,-55.894256 -7.76798,-5.86181 -6.903752,-6.301407 -10.891277,5.539934 -3.249015,9.648262 -7.22024,16.86901 -14.114541,25.664003 -4.52156,5.768111 -3.874302,8.230192 1.834038,6.976431 7.677564,-1.686276 15.785002,4.736509 15.785002,12.505022 0,11.014604 7.152384,-1.735098 10.088725,-17.98397 1.368329,-7.571939 2.997897,-10.029799 6.334818,-9.554743 3.95241,0.562676 3.59625,10.051643 -0.90989,24.241552 -2.299585,7.241447 -2.819279,10.486736 -1.7326,10.819463 0.85375,0.261409 2.45228,0.775457 3.55228,1.14233 4.62741,1.543336 6.45123,0.747627 7.92085,-3.455766 z M 6.00049,82.187873 C 3.6404255,78.58596 4.4826787,75.215747 8.2462757,73.201531 13.913744,70.168393 20.306205,79.160461 15.733333,83.733333 13.111272,86.355395 8.2225193,85.579119 6.00049,82.187873 Z m 7.28437,-1.4628 C 15.301447,78.295235 13.991419,76 10.587977,76 8.9673124,76 8,76.913664 8,78.444444 c 0,4.366043 2.616891,5.495336 5.28486,2.280629 z M 69.6,78.4 C 65.860004,74.660004 68.677697,68 74,68 c 1.54,0 3.52,0.72 4.4,1.6 3.739996,3.739996 0.922303,10.4 -4.4,10.4 -1.54,0 -3.52,-0.72 -4.4,-1.6 z m 7.483231,-4.086011 c 0.530649,-2.75544 -3.318419,-4.612134 -5.349898,-2.580656 -2.031478,2.031479 -0.174784,5.880547 2.580656,5.349898 1.277131,-0.245952 2.52329,-1.492111 2.769242,-2.769242 z M 54.888847,50.333333 C 45.717551,35.403733 43.438428,14.947757 50.666667,12.437708 62.983353,8.1606632 80,10.860445 80,17.091599 80,35.296215 61.056463,60.37336 54.888847,50.333333 Z m 15.82928,-14.987996 c 9.92988,-20.409525 7.867237,-23.974998 -12.404422,-21.442221 -10.327184,1.290296 -10.476525,1.483473 -8.882973,11.490313 4.314029,27.0903 11.348908,30.379123 21.287395,9.951908 z"
       id="path1257" />
  </g>
</svg>
